# xmcd
#
# Track frame offsets: 
#        150
#        19472
#        32284
#        47027
#        63703
#        79589
#        98070
#        113575
#        128816
#        143209
#
# Disc length: 2147 seconds
#
# Revision: 0
# Processed by: cddbd v1.5.2PL0 Copyright (c) Steve Scherf et al.
# Submitted via: ExactAudioCopy v0.99pb5
#
DISCID=7e08610a
DTITLE=Stonehoney - Songs From a Hillside Living Room
DYEAR=2008
DGENRE=Country
TTITLE0=Two Years Down
TTITLE1=Get Drunk Tonight
TTITLE2=Smile Again
TTITLE3=Good As Gone
TTITLE4=Million Pretty Girls
TTITLE5=Little Angel
TTITLE6=Love Will Make You Crazy
TTITLE7=Cry Baby Cry
TTITLE8=There Is Light
TTITLE9=Melinda
EXTD=
EXTT0=
EXTT1=
EXTT2=
EXTT3=
EXTT4=
EXTT5=
EXTT6=
EXTT7=
EXTT8=
EXTT9=
PLAYORDER=
